<svg width="800" height="560" viewBox="0 0 800 560" fill="none" xmlns="http://www.w3.org/2000/svg">
  <defs>
    <linearGradient id="c-bg" x1="88" y1="44" x2="718" y2="530" gradientUnits="userSpaceOnUse">
      <stop stop-color="#ECFEFF"/>
      <stop offset="1" stop-color="#E0E7FF"/>
    </linearGradient>
    <linearGradient id="c-tray" x1="186" y1="276" x2="610" y2="438" gradientUnits="userSpaceOnUse">
      <stop stop-color="#3B82F6"/>
      <stop offset="1" stop-color="#8B5CF6"/>
    </linearGradient>
    <linearGradient id="c-plate" x1="318" y1="206" x2="482" y2="354" gradientUnits="userSpaceOnUse">
      <stop stop-color="#FBBF24"/>
      <stop offset="1" stop-color="#F97316"/>
    </linearGradient>
  </defs>

  <rect width="800" height="560" rx="32" fill="url(#c-bg)"/>
  <circle cx="136" cy="130" r="64" fill="#BAE6FD" fill-opacity="0.48"/>
  <circle cx="668" cy="430" r="70" fill="#C4B5FD" fill-opacity="0.44"/>

  <rect x="150" y="126" width="500" height="316" rx="30" fill="#FFFFFF"/>
  <rect x="184" y="274" width="432" height="136" rx="28" fill="url(#c-tray)"/>

  <circle cx="400" cy="278" r="94" fill="#F8FAFC"/>
  <circle cx="400" cy="278" r="76" fill="url(#c-plate)"/>
  <circle cx="370" cy="258" r="22" fill="#FDE68A"/>
  <circle cx="432" cy="262" r="20" fill="#FCA5A5"/>
  <circle cx="398" cy="308" r="24" fill="#86EFAC"/>

  <rect x="226" y="304" width="74" height="74" rx="18" fill="#DBEAFE"/>
  <path d="M242 352H284" stroke="#3B82F6" stroke-width="10" stroke-linecap="round"/>
  <path d="M252 328V362" stroke="#60A5FA" stroke-width="6" stroke-linecap="round"/>
  <path d="M274 328V362" stroke="#60A5FA" stroke-width="6" stroke-linecap="round"/>

  <rect x="500" y="304" width="78" height="74" rx="18" fill="#EDE9FE"/>
  <path d="M538 324V362" stroke="#7C3AED" stroke-width="8" stroke-linecap="round"/>
  <ellipse cx="538" cy="319" rx="20" ry="10" fill="#C4B5FD"/>

  <rect x="210" y="176" width="172" height="20" rx="10" fill="#E2E8F0"/>
  <rect x="210" y="208" width="248" height="16" rx="8" fill="#E2E8F0"/>
</svg>
