<svg width="800" height="560" viewBox="0 0 800 560" fill="none" xmlns="http://www.w3.org/2000/svg">
  <defs>
    <linearGradient id="cl-bg" x1="80" y1="46" x2="724" y2="528" gradientUnits="userSpaceOnUse">
      <stop stop-color="#F0F9FF"/>
      <stop offset="1" stop-color="#EDE9FE"/>
    </linearGradient>
    <linearGradient id="cl-board" x1="198" y1="124" x2="574" y2="286" gradientUnits="userSpaceOnUse">
      <stop stop-color="#1E293B"/>
      <stop offset="1" stop-color="#334155"/>
    </linearGradient>
    <linearGradient id="cl-desk" x1="184" y1="300" x2="612" y2="438" gradientUnits="userSpaceOnUse">
      <stop stop-color="#3B82F6"/>
      <stop offset="1" stop-color="#8B5CF6"/>
    </linearGradient>
  </defs>

  <rect width="800" height="560" rx="32" fill="url(#cl-bg)"/>
  <circle cx="142" cy="104" r="62" fill="#BFDBFE" fill-opacity="0.48"/>
  <circle cx="668" cy="442" r="70" fill="#C4B5FD" fill-opacity="0.42"/>

  <rect x="154" y="108" width="492" height="340" rx="30" fill="#FFFFFF"/>
  <rect x="188" y="140" width="424" height="162" rx="18" fill="url(#cl-board)"/>
  <path d="M226 192H362" stroke="#93C5FD" stroke-width="8" stroke-linecap="round"/>
  <path d="M226 224H330" stroke="#60A5FA" stroke-width="8" stroke-linecap="round"/>
  <path d="M430 192H572" stroke="#C4B5FD" stroke-width="8" stroke-linecap="round"/>
  <path d="M430 224H530" stroke="#A5B4FC" stroke-width="8" stroke-linecap="round"/>

  <rect x="184" y="326" width="188" height="92" rx="20" fill="url(#cl-desk)"/>
  <rect x="428" y="326" width="188" height="92" rx="20" fill="url(#cl-desk)"/>

  <rect x="220" y="346" width="116" height="30" rx="10" fill="#EFF6FF"/>
  <rect x="464" y="346" width="116" height="30" rx="10" fill="#EEF2FF"/>

  <circle cx="278" cy="306" r="24" fill="#BFDBFE"/>
  <path d="M242 326C246 306 260 294 278 294C296 294 310 306 314 326" fill="#60A5FA"/>

  <circle cx="522" cy="306" r="24" fill="#DDD6FE"/>
  <path d="M486 326C490 306 504 294 522 294C540 294 554 306 558 326" fill="#8B5CF6"/>

  <rect x="204" y="264" width="78" height="12" rx="6" fill="#22D3EE"/>
  <rect x="518" y="264" width="78" height="12" rx="6" fill="#A78BFA"/>
</svg>
