<svg width="800" height="560" viewBox="0 0 800 560" fill="none" xmlns="http://www.w3.org/2000/svg">
  <defs>
    <linearGradient id="n-bg" x1="86" y1="44" x2="720" y2="532" gradientUnits="userSpaceOnUse">
      <stop stop-color="#E9F1FF"/>
      <stop offset="1" stop-color="#ECE8FF"/>
    </linearGradient>
    <linearGradient id="n-card" x1="132" y1="92" x2="646" y2="470" gradientUnits="userSpaceOnUse">
      <stop stop-color="#FFFFFF"/>
      <stop offset="1" stop-color="#F8FAFF"/>
    </linearGradient>
    <linearGradient id="n-accent" x1="231" y1="176" x2="555" y2="404" gradientUnits="userSpaceOnUse">
      <stop stop-color="#3B82F6"/>
      <stop offset="1" stop-color="#8B5CF6"/>
    </linearGradient>
    <filter id="n-shadow" x="94" y="76" width="612" height="424" filterUnits="userSpaceOnUse" color-interpolation-filters="sRGB">
      <feFlood flood-opacity="0" result="BackgroundImageFix"/>
      <feColorMatrix in="SourceAlpha" type="matrix" values="0 0 0 0 0 0 0 0 0 0 0 0 0 0 0 0 0 0 127 0" result="hardAlpha"/>
      <feOffset dy="10"/>
      <feGaussianBlur stdDeviation="12"/>
      <feColorMatrix type="matrix" values="0 0 0 0 0.14902 0 0 0 0 0.243137 0 0 0 0 0.564706 0 0 0 0.2 0"/>
      <feBlend mode="normal" in2="BackgroundImageFix" result="effect1_dropShadow_1_1"/>
      <feBlend mode="normal" in="SourceGraphic" in2="effect1_dropShadow_1_1" result="shape"/>
    </filter>
  </defs>

  <rect width="800" height="560" rx="32" fill="url(#n-bg)"/>
  <circle cx="148" cy="86" r="62" fill="#BFDBFE" fill-opacity="0.56"/>
  <circle cx="678" cy="128" r="74" fill="#DDD6FE" fill-opacity="0.58"/>
  <circle cx="662" cy="448" r="62" fill="#C4B5FD" fill-opacity="0.42"/>
  <circle cx="114" cy="466" r="54" fill="#BAE6FD" fill-opacity="0.52"/>

  <g filter="url(#n-shadow)">
    <rect x="118" y="90" width="564" height="390" rx="30" fill="url(#n-card)"/>
    <rect x="118" y="90" width="564" height="72" rx="30" fill="url(#n-accent)"/>
    <circle cx="166" cy="126" r="8" fill="#F8FAFC" fill-opacity="0.92"/>
    <circle cx="192" cy="126" r="8" fill="#F8FAFC" fill-opacity="0.7"/>
    <circle cx="218" cy="126" r="8" fill="#F8FAFC" fill-opacity="0.48"/>

    <rect x="164" y="198" width="230" height="14" rx="7" fill="#CBD5E1"/>
    <rect x="164" y="228" width="298" height="12" rx="6" fill="#E2E8F0"/>
    <rect x="164" y="252" width="272" height="12" rx="6" fill="#E2E8F0"/>
    <rect x="164" y="276" width="318" height="12" rx="6" fill="#E2E8F0"/>
    <rect x="164" y="320" width="348" height="116" rx="20" fill="#EEF2FF"/>

    <g>
      <path d="M562 222L514 244V212L562 222Z" fill="#2563EB"/>
      <path d="M514 212L474 202V242L514 244V212Z" fill="#3B82F6"/>
      <rect x="462" y="214" width="14" height="28" rx="7" fill="#1D4ED8"/>
      <rect x="468" y="242" width="12" height="26" rx="6" transform="rotate(-20 468 242)" fill="#60A5FA"/>
      <circle cx="574" cy="210" r="10" fill="#A78BFA"/>
      <circle cx="600" cy="222" r="7" fill="#60A5FA"/>
      <circle cx="590" cy="196" r="6" fill="#C4B5FD"/>
    </g>

    <g>
      <circle cx="567" cy="364" r="40" fill="#DBEAFE"/>
      <circle cx="567" cy="348" r="15" fill="#2563EB" fill-opacity="0.82"/>
      <path d="M536 390C539 366 553 356 567 356C581 356 595 366 598 390" fill="#3B82F6"/>
      <rect x="524" y="400" width="86" height="14" rx="7" fill="#BFDBFE"/>
    </g>
  </g>
</svg>
